<?xml version="1.0" standalone="no"?>
<!DOCTYPE svg PUBLIC "-//W3C//DTD SVG 20010904//EN"
 "http://www.w3.org/TR/2001/REC-SVG-20010904/DTD/svg10.dtd">
<svg version="1.0" xmlns="http://www.w3.org/2000/svg"
 width="64.000000pt" height="64.000000pt" viewBox="0 0 64.000000 64.000000"
 preserveAspectRatio="xMidYMid meet">

<g transform="translate(0.000000,64.000000) scale(0.100000,-0.100000)"
fill="#000000" stroke="none">
<path d="M73 593 c-10 -29 -35 -53 -55 -53 -28 0 -21 -20 11 -31 19 -7 33 -21
40 -40 11 -32 31 -39 31 -11 0 23 30 52 53 52 28 0 19 25 -13 37 -18 7 -32 21
-36 37 -7 30 -22 34 -31 9z m32 -53 c4 -6 1 -17 -5 -26 -10 -11 -16 -12 -26
-3 -11 9 -11 15 -3 25 14 17 25 18 34 4z"/>
<path d="M277 570 c-3 -8 -10 -35 -17 -60 -6 -25 -23 -60 -37 -79 -27 -35
-112 -81 -150 -81 -38 0 -25 -19 17 -26 65 -11 123 -54 154 -115 14 -29 26
-66 26 -81 0 -36 18 -36 25 0 3 15 10 41 16 57 15 44 15 47 3 52 -6 2 -15 -6
-20 -18 -10 -22 -11 -21 -32 12 -25 42 -58 73 -96 92 l-28 15 28 15 c33 17 86
71 103 105 12 22 13 22 44 -25 18 -26 49 -57 69 -68 43 -23 47 -31 18 -40 -28
-9 -25 -29 3 -22 12 3 43 11 70 17 46 11 65 30 30 30 -81 0 -186 84 -198 157
-9 54 -21 82 -28 63z"/>
<path d="M340 270 c0 -5 5 -10 10 -10 6 0 10 5 10 10 0 6 -4 10 -10 10 -5 0
-10 -4 -10 -10z"/>
<path d="M506 273 c-3 -3 -6 -14 -6 -24 0 -28 -47 -76 -80 -82 -39 -8 -39 -23
0 -31 38 -7 80 -51 80 -82 0 -15 6 -24 15 -24 9 0 15 9 15 24 0 31 42 75 80
82 39 8 39 23 0 31 -34 6 -80 55 -80 83 0 20 -13 33 -24 23z m35 -146 l-25
-27 -27 26 -26 25 26 27 26 27 25 -25 26 -25 -25 -28z"/>
</g>
</svg>
